{"glyphs":{"0":{"ha":678,"x_min":0,"x_max":0,"o":"m 322 0 b 0 311 161 0 0 106 l 0 800 b 322 1111 0 1004 161 1111 b 644 800 483 1111 644 1004 l 644 311 b 322 0 644 106 483 0 m 322 929 b 207 811 264 929 207 890 l 207 304 b 322 185 207 225 265 185 b 439 304 381 185 439 225 l 439 811 b 322 929 439 890 379 929 "},"1":{"ha":456,"x_min":0,"x_max":0,"o":"m 433 13 b 419 0 433 7 429 0 l 236 0 b 222 13 226 0 222 7 l 222 874 b 81 821 174 857 126 838 b 63 829 74 819 65 822 l 1 958 b 8 975 -1 965 0 971 l 260 1111 l 419 1111 b 433 1099 429 1111 433 1104 "},"2":{"ha":689,"x_min":0,"x_max":0,"o":"m 657 13 b 640 0 657 7 650 0 l 15 0 b 0 13 7 0 0 7 l 0 178 l 388 711 b 425 810 414 747 425 781 b 328 907 425 867 382 907 b 210 790 271 907 210 872 b 194 779 210 785 204 779 l 26 779 b 11 790 17 779 11 785 b 328 1111 11 968 110 1111 b 643 821 490 1111 643 990 b 564 608 643 756 619 681 l 258 204 l 640 204 b 657 192 650 204 657 197 "},"3":{"ha":732,"x_min":0,"x_max":0,"o":"m 388 914 l 51 914 b 36 926 42 914 36 921 l 36 1099 b 51 1111 36 1106 42 1111 l 681 1111 b 694 1092 693 1111 700 1103 l 464 686 b 690 342 608 643 690 517 b 336 0 690 100 517 0 b 0 324 157 0 0 125 b 15 336 0 331 7 336 l 193 336 b 207 324 200 336 207 331 b 336 201 207 249 271 201 b 479 354 431 201 479 279 b 332 524 479 449 421 517 l 185 524 b 171 543 172 524 165 533 "},"4":{"ha":693,"x_min":0,"x_max":0,"o":"m 660 13 b 644 0 660 7 654 0 l 464 0 b 449 13 456 0 449 7 l 449 329 l 15 329 b 0 342 7 329 0 335 l 0 515 l 453 1107 b 464 1111 454 1108 460 1111 l 644 1111 b 660 1099 654 1111 660 1104 m 211 513 l 451 513 l 451 814 "},"5":{"ha":707,"x_min":0,"x_max":0,"o":"m 0 325 b 15 338 0 332 7 338 l 193 338 b 208 325 203 338 208 332 b 328 203 208 242 263 203 b 464 350 417 203 464 275 b 328 524 464 444 421 524 l 24 524 b 8 536 14 524 8 529 l 8 1099 b 24 1111 8 1104 14 1111 l 600 1111 b 617 1099 610 1111 617 1104 l 617 932 b 600 919 617 925 610 919 l 218 919 l 218 707 l 328 707 b 672 339 567 707 672 561 b 328 0 672 126 510 0 b 0 325 146 0 0 113 "},"6":{"ha":683,"x_min":0,"x_max":0,"o":"m 0 329 b 15 442 0 367 3 404 l 249 1103 b 261 1111 250 1108 254 1111 l 451 1111 b 464 1094 461 1111 468 1103 l 306 643 b 363 649 319 649 338 649 b 651 325 542 649 651 490 b 322 0 651 146 503 0 b 0 329 128 0 0 150 m 194 324 b 324 190 194 250 253 190 b 456 324 396 190 456 250 b 324 458 456 397 396 458 b 194 324 254 458 194 397 "},"7":{"ha":715,"x_min":0,"x_max":0,"o":"m 388 911 l 15 911 b 0 924 7 911 0 918 l 0 1099 b 15 1111 0 1104 7 1111 l 665 1111 b 679 1093 676 1111 685 1103 l 269 8 b 257 0 268 3 264 0 l 64 0 b 51 18 54 0 46 8 "},"8":{"ha":682,"x_min":0,"x_max":0,"o":"m 536 557 b 649 329 606 499 649 413 b 324 0 649 110 485 0 b 0 329 163 0 0 110 b 107 558 0 413 46 506 b 0 783 44 613 0 700 b 324 1111 0 1000 163 1111 b 649 783 485 1111 649 1000 b 536 557 649 699 606 607 m 324 654 b 450 783 393 654 450 711 b 324 921 450 875 386 921 b 197 783 260 921 197 875 b 324 654 197 711 253 654 m 324 194 b 444 329 383 194 444 239 b 324 461 444 399 390 461 b 203 329 257 461 203 399 b 324 194 203 239 263 194 "},"9":{"ha":683,"x_min":0,"x_max":0,"o":"m 651 782 b 633 668 651 747 649 710 l 403 8 b 389 0 401 3 396 0 l 200 0 b 185 17 189 0 182 8 l 346 468 b 289 463 329 463 314 463 b 0 786 110 463 0 621 b 328 1111 0 965 149 1111 b 651 782 524 1111 651 961 m 454 788 b 326 918 454 860 396 918 b 200 788 256 918 200 860 b 326 656 200 715 256 656 b 454 788 394 656 454 714 "}," ":{"ha":347,"x_min":0,"x_max":0,"o":""},"!":{"ha":232,"x_min":0,"x_max":0,"o":"m 221 107 b 108 0 221 49 172 0 b 0 107 50 0 0 49 b 108 215 0 165 50 215 b 221 107 172 215 221 165 m 194 1042 b 208 1031 203 1042 208 1036 l 208 317 b 194 304 208 311 203 304 l 26 304 b 11 317 18 304 11 311 l 11 1031 b 26 1042 11 1036 18 1042 "},"#":{"ha":978,"x_min":0,"x_max":0,"o":"m 761 619 b 693 383 738 538 714 467 l 803 383 b 818 368 814 383 821 376 l 776 221 b 761 213 775 217 768 213 l 646 213 l 588 8 b 574 0 586 4 581 0 l 419 0 b 404 15 410 0 403 7 l 461 213 l 322 213 l 265 8 b 250 0 264 4 257 0 l 97 0 b 83 15 89 0 81 7 l 138 213 l 14 213 b 0 228 6 213 -3 219 l 42 375 b 57 383 43 379 51 383 l 185 383 b 253 619 207 467 229 538 l 128 619 b 114 635 118 619 111 626 l 154 779 b 168 788 156 783 163 788 l 297 788 l 368 1033 b 382 1042 369 1038 376 1042 l 536 1042 b 550 1026 546 1042 553 1035 l 482 788 l 622 788 l 692 1033 b 707 1042 693 1038 700 1042 l 860 1042 b 875 1026 869 1042 878 1035 l 806 788 l 917 788 b 931 772 926 788 933 781 l 890 629 b 876 619 889 624 882 619 m 599 639 l 429 639 l 349 364 l 518 364 "},"(":{"ha":374,"x_min":0,"x_max":0,"o":"m 131 6 b 0 525 47 163 0 340 b 132 1036 0 676 33 851 b 146 1042 135 1039 142 1042 l 343 1042 b 353 1024 354 1042 361 1033 b 199 526 250 865 199 699 b 351 18 199 347 253 168 b 342 0 360 8 353 0 l 144 0 "},")":{"ha":376,"x_min":0,"x_max":0,"o":"m 226 1036 b 324 783 261 969 299 883 b 358 518 343 710 358 619 b 225 6 358 367 324 190 b 213 0 224 3 217 0 l 15 0 b 3 18 1 0 -4 8 b 160 515 107 176 160 343 b 131 736 160 588 149 661 b 4 1024 93 879 36 976 b 17 1042 -3 1033 3 1042 l 214 1042 "},"+":{"ha":724,"x_min":0,"x_max":0,"o":"m 689 265 b 672 253 689 258 683 253 l 439 253 l 439 14 b 422 0 439 7 432 0 l 256 0 b 239 14 246 0 239 7 l 239 253 l 17 253 b 0 265 7 253 0 258 l 0 432 b 17 446 0 439 7 446 l 239 446 l 239 681 b 256 694 239 688 246 694 l 422 694 b 439 681 432 694 439 688 l 439 446 l 672 446 b 689 432 683 446 689 439 "},",":{"ha":1389,"x_min":0,"x_max":0,"o":""},"-":{"ha":814,"x_min":0,"x_max":0,"o":"m 676 626 b 664 615 676 621 672 615 l 167 615 b 151 626 157 615 151 621 l 151 776 b 167 789 151 782 157 789 l 664 789 b 676 776 672 789 676 782 "},".":{"ha":210,"x_min":0,"x_max":0,"o":"m 200 97 b 99 0 200 43 156 0 b 0 97 44 0 0 43 b 99 196 0 150 44 196 b 200 97 156 196 200 150 "},"/":{"ha":707,"x_min":0,"x_max":0,"o":"m 660 1042 b 672 1025 671 1042 676 1035 l 196 7 b 183 0 194 4 188 0 l 14 0 b 1 17 3 0 -3 7 l 472 1035 b 486 1042 474 1038 482 1042 "},":":{"ha":244,"x_min":0,"x_max":0,"o":"m 232 579 b 115 467 232 518 182 467 b 0 579 53 467 0 518 b 115 694 0 642 53 694 b 232 579 182 694 232 642 m 232 113 b 115 0 232 51 182 0 b 0 113 53 0 0 51 b 115 228 0 175 53 228 b 232 113 182 228 232 175 "},";":{"ha":213,"x_min":0,"x_max":0,"o":"m 203 197 b 101 3 203 126 157 36 b 82 11 93 -4 82 3 l 82 115 b 0 208 35 121 0 161 b 96 301 0 260 43 301 b 203 197 172 301 203 254 m 201 599 b 103 506 201 547 160 506 b 8 599 51 506 8 547 b 103 694 8 651 51 694 b 201 599 160 694 201 651 "},"=":{"ha":688,"x_min":0,"x_max":0,"o":"m 656 328 b 639 315 656 324 650 315 l 18 315 b 0 328 7 315 0 324 l 0 507 b 18 521 0 514 7 521 l 639 521 b 656 507 650 521 656 514 m 656 13 b 639 0 656 7 650 0 l 18 0 b 0 13 7 0 0 7 l 0 193 b 18 207 0 200 7 207 l 639 207 b 656 193 650 207 656 200 "},"?":{"ha":651,"x_min":0,"x_max":0,"o":"m 619 729 b 388 460 619 604 511 494 l 388 293 b 374 283 388 289 382 283 l 224 283 b 208 293 214 283 208 289 l 208 596 b 225 607 208 603 215 607 b 425 729 383 597 425 674 b 306 851 425 828 367 851 b 194 754 243 851 194 815 b 179 743 194 749 189 743 l 15 743 b 0 754 6 743 0 749 b 306 1042 0 922 136 1042 b 619 729 483 1042 619 933 m 304 208 b 413 104 358 208 413 174 b 300 0 413 36 357 0 b 193 104 247 0 193 35 b 304 208 193 172 249 208 "},"@":{"ha":1103,"x_min":0,"x_max":0,"o":"m 788 519 b 768 419 788 494 782 446 l 858 419 l 858 519 b 525 860 858 735 701 860 b 186 519 310 860 186 696 b 525 176 186 343 313 176 l 1021 176 b 1036 165 1031 176 1036 171 l 1036 11 b 1021 0 1036 6 1031 0 l 525 0 b 0 519 204 0 0 239 b 525 1042 0 800 204 1042 b 1050 519 807 1042 1050 847 l 1050 271 b 1036 260 1050 265 1044 260 l 525 260 b 263 519 379 260 263 376 b 525 779 263 661 379 779 b 788 519 669 779 788 661 m 525 428 b 614 519 574 428 614 468 b 525 611 614 571 574 611 b 436 519 478 611 436 571 b 525 428 436 468 478 428 "},"A":{"ha":917,"x_min":0,"x_max":0,"o":"m 872 17 b 860 0 876 8 869 0 l 668 0 b 656 8 664 0 657 3 l 436 628 l 219 8 b 206 0 218 3 211 0 l 15 0 b 1 17 3 0 -3 8 l 422 1103 b 450 1103 426 1114 446 1114 l 872 17 "},"B":{"ha":808,"x_min":0,"x_max":0,"o":"m 542 781 b 378 913 542 914 378 913 l 211 913 l 211 658 l 378 658 b 542 781 378 658 542 658 m 754 793 b 600 556 754 664 685 590 b 769 324 776 496 769 324 b 378 0 769 14 453 0 l 213 0 l 213 203 l 378 203 b 557 329 447 203 557 222 b 378 451 557 460 378 451 l 211 451 l 0 451 l 0 1099 b 15 1111 0 1104 7 1111 l 378 1111 b 754 793 378 1111 754 1119 "},"C":{"ha":890,"x_min":0,"x_max":0,"o":"m 847 204 l 847 13 b 832 0 847 7 842 0 l 651 0 b 0 556 375 0 0 81 b 651 1111 0 1049 379 1111 l 832 1111 b 847 1099 842 1111 847 1104 l 847 663 l 635 663 l 635 908 b 214 556 393 921 214 819 b 635 204 214 213 500 199 l 635 204 "},"D":{"ha":890,"x_min":0,"x_max":0,"o":"m 197 1111 b 847 556 468 1111 847 1049 b 197 0 847 81 474 0 l 15 0 b 0 13 7 0 0 7 l 0 449 l 213 449 l 213 204 b 633 556 347 199 633 213 b 213 908 633 819 454 921 l 213 663 l 0 663 l 0 1099 b 15 1111 0 1104 7 1111 l 197 1111 "},"E":{"ha":697,"x_min":0,"x_max":0,"o":"m 528 0 l 15 0 b 0 13 7 0 0 7 l 0 1099 b 15 1111 0 1104 7 1111 l 528 1111 l 528 910 l 213 910 l 213 658 l 649 658 b 664 646 657 658 664 653 l 664 469 b 649 457 664 464 657 457 l 213 457 l 213 207 l 528 207 "},"F":{"ha":697,"x_min":0,"x_max":0,"o":"m 649 658 b 664 646 657 658 664 653 l 664 469 b 649 457 664 464 657 457 l 213 457 l 213 0 l 211 0 l 74 0 l 15 0 b 0 13 7 0 0 7 l 0 1099 b 15 1111 0 1104 7 1111 l 528 1111 l 528 910 l 213 910 l 213 658 l 649 658 "},"G":{"ha":890,"x_min":0,"x_max":0,"o":"m 635 907 l 635 907 b 214 556 500 913 214 899 b 635 203 214 292 393 190 l 635 449 l 635 449 l 635 481 l 421 481 l 421 693 l 635 693 l 847 693 l 847 481 l 847 449 l 847 13 b 832 0 847 7 842 0 l 651 0 b 0 556 379 0 0 63 b 651 1111 0 1031 375 1111 l 832 1111 b 847 1099 842 1111 847 1104 l 847 907 "},"H":{"ha":889,"x_min":0,"x_max":0,"o":"m 0 629 l 0 1099 b 15 1111 0 1104 7 1111 l 197 1111 b 213 1099 207 1111 213 1104 l 213 660 l 213 629 m 831 1111 b 846 1099 840 1111 846 1104 l 846 13 b 831 0 846 7 840 0 l 649 0 b 633 13 640 0 633 7 l 633 208 l 213 208 l 213 13 b 197 0 213 7 207 0 l 15 0 b 0 13 7 0 0 7 l 0 417 l 213 417 l 213 415 l 633 415 l 633 453 l 633 660 l 633 1099 b 649 1111 633 1104 640 1111 l 831 1111 "},"I":{"ha":492,"x_min":0,"x_max":0,"o":"m 453 190 b 468 178 463 190 468 185 l 468 13 b 453 0 468 7 463 0 l 15 0 b 0 13 7 0 0 7 l 0 178 b 15 190 0 185 7 190 l 129 190 l 129 583 l 129 921 l 129 1111 l 342 1111 l 342 921 l 342 583 l 342 190 l 453 190 "},"J":{"ha":510,"x_min":0,"x_max":0,"o":"m 93 921 b 78 933 83 921 78 928 l 78 1099 b 93 1111 78 1104 83 1111 l 471 1111 b 485 1099 481 1111 485 1104 l 485 921 l 274 921 l 93 921 m 485 731 l 485 328 b 153 0 485 0 153 0 l 15 0 b 0 13 7 0 0 7 l 0 193 b 15 206 0 200 7 206 l 153 206 b 274 328 274 206 274 328 l 274 731 "},"K":{"ha":935,"x_min":0,"x_max":0,"o":"m 886 21 b 874 0 894 10 888 0 l 635 0 b 622 4 632 0 624 3 l 299 404 b 0 68 271 375 0 68 l 0 68 l 0 1099 b 15 1111 0 1104 7 1111 l 199 1111 b 213 1099 207 1111 213 1104 l 213 593 l 631 1107 b 643 1111 632 1108 640 1111 l 869 1111 b 882 1090 885 1111 892 1100 l 440 546 l 886 21 "},"L":{"ha":647,"x_min":0,"x_max":0,"o":"m 600 207 b 615 193 610 207 615 200 l 615 13 b 600 0 615 7 610 0 l 15 0 b 0 13 7 0 0 7 l 0 207 l 213 207 l 600 207 m 0 419 l 0 1099 b 15 1111 0 1104 7 1111 l 199 1111 b 213 1099 207 1111 213 1104 l 213 419 "},"M":{"ha":1267,"x_min":0,"x_max":0,"o":"m 994 621 l 711 53 b 699 44 710 49 703 44 l 528 44 b 514 53 524 44 515 49 l 213 636 l 213 13 b 197 0 213 7 206 0 l 14 0 b 0 13 4 0 0 7 l 0 1099 b 14 1111 0 1104 4 1111 l 200 1111 b 214 1103 204 1111 213 1107 l 613 289 l 992 1103 b 1007 1111 994 1107 1001 1111 l 1190 1111 b 1206 1099 1200 1111 1206 1104 l 1206 268 l 994 268 "},"N":{"ha":982,"x_min":0,"x_max":0,"o":"m 919 1111 b 935 1099 929 1111 935 1104 l 935 13 b 919 0 935 7 929 0 l 736 0 b 724 4 733 0 725 1 l 213 736 l 213 267 l 0 267 l 0 1099 b 14 1111 0 1104 7 1111 l 199 1111 b 211 1107 201 1111 210 1110 l 724 375 l 724 1099 b 740 1111 724 1104 731 1111 l 919 1111 "},"O":{"ha":1122,"x_min":0,"x_max":0,"o":"m 639 553 b 535 449 639 496 593 449 b 431 553 476 449 431 496 b 535 658 431 611 476 658 b 639 553 593 658 639 611 m 1069 557 b 536 0 1069 279 890 0 b 0 557 176 0 0 279 b 536 1111 0 833 176 1111 b 1069 557 890 1111 1069 833 m 861 553 b 536 915 861 735 751 915 b 210 553 318 915 210 735 b 536 194 210 374 318 194 b 861 553 751 194 861 374 "},"P":{"ha":786,"x_min":0,"x_max":0,"o":"m 374 1111 b 749 778 418 1111 749 1104 b 374 447 749 451 400 447 l 208 447 l 208 13 b 194 0 208 7 204 0 l 14 0 b 0 13 7 0 0 7 l 0 653 l 208 653 l 374 653 b 538 778 401 653 538 656 b 374 907 538 900 399 907 l 208 907 l 0 907 l 0 1099 b 14 1111 0 1104 7 1111 l 374 1111 "},"Q":{"ha":1135,"x_min":0,"x_max":0,"o":"m 203 564 b 532 208 203 379 332 208 b 688 247 581 208 639 224 l 229 706 b 203 564 213 661 203 613 m 864 564 b 532 915 864 749 747 915 b 357 867 464 915 406 897 l 828 396 b 864 564 850 443 864 510 m 1075 142 b 1075 124 1082 138 1082 129 l 956 3 b 933 3 949 -1 940 -1 l 833 104 b 532 13 746 47 642 13 b 0 564 213 13 0 271 b 532 1111 0 854 203 1111 b 1065 564 849 1111 1065 854 b 974 244 1065 456 1031 332 l 1075 142 "},"R":{"ha":799,"x_min":0,"x_max":0,"o":"m 758 18 b 746 0 763 8 757 0 l 547 0 b 533 8 543 0 535 4 l 331 449 l 211 449 l 211 13 b 196 0 211 7 204 0 l 14 0 b 0 13 7 0 0 7 l 0 653 l 211 653 l 374 653 b 538 781 419 653 538 658 b 374 910 538 903 407 910 l 211 910 l 0 910 l 0 1099 b 14 1111 0 1104 7 1111 l 374 1111 b 749 781 436 1111 749 1108 b 544 482 749 611 656 522 b 758 18 614 325 689 172 "},"S":{"ha":725,"x_min":0,"x_max":0,"o":"m 510 617 b 690 324 626 563 690 454 b 346 0 690 115 524 0 b 344 0 346 0 346 0 l 344 200 b 346 200 346 200 346 200 b 485 324 419 200 485 250 b 346 458 485 406 408 456 b 181 496 336 458 261 458 b 0 776 65 549 0 647 b 346 1111 0 985 168 1111 b 686 794 536 1111 683 983 b 671 783 688 790 681 783 l 497 783 b 482 794 489 783 482 790 b 346 911 479 874 418 911 b 207 776 269 911 207 865 b 346 654 207 696 275 654 b 510 617 353 654 431 654 "},"T":{"ha":701,"x_min":0,"x_max":0,"o":"m 440 708 l 440 13 b 424 0 440 7 433 0 l 244 0 b 229 13 235 0 229 7 l 229 708 m 15 921 b 0 933 7 921 0 926 l 0 1099 b 15 1111 0 1104 7 1111 l 653 1111 b 668 1099 663 1111 668 1104 l 668 933 b 653 921 668 926 663 921 l 15 921 "},"U":{"ha":875,"x_min":0,"x_max":0,"o":"m 819 1111 b 833 1099 826 1111 833 1104 l 833 371 b 417 0 833 136 653 0 b 0 371 188 0 0 142 l 0 910 l 210 910 l 210 372 b 417 204 222 263 314 204 b 624 371 521 204 624 258 l 624 1099 b 639 1111 624 1104 629 1111 l 819 1111 "},"V":{"ha":833,"x_min":0,"x_max":0,"o":"m 793 904 l 446 7 b 419 7 442 -3 425 -3 l 1 1094 b 14 1111 -3 1103 3 1111 l 203 1111 b 217 1103 210 1111 215 1108 l 433 497 l 579 904 "},"W":{"ha":1439,"x_min":0,"x_max":0,"o":"m 1371 907 l 1025 8 b 999 8 1021 -3 1003 -3 l 685 832 l 371 8 b 344 8 367 -3 349 -3 l 0 907 l 217 907 l 357 525 l 578 1103 b 590 1111 579 1108 585 1111 l 779 1111 b 793 1103 785 1111 790 1108 l 1013 525 l 1154 907 "},"X":{"ha":1081,"x_min":0,"x_max":0,"o":"m 1013 1111 b 1026 1090 1028 1111 1033 1100 l 643 556 b 889 213 725 443 807 328 l 631 213 l 515 375 l 250 4 b 238 0 249 1 240 0 l 15 0 b 4 21 1 0 -4 11 l 385 556 b 140 899 303 668 222 783 l 399 899 l 515 736 l 778 1107 b 790 1111 779 1110 788 1111 l 1013 1111 "},"Y":{"ha":933,"x_min":0,"x_max":0,"o":"m 889 899 l 621 522 l 621 13 b 606 0 621 7 614 0 l 424 0 b 408 13 414 0 408 7 l 408 522 b 3 1090 275 713 138 901 b 17 1111 -4 1100 1 1111 l 236 1111 b 250 1107 240 1111 247 1110 l 514 736 l 631 899 "},"Z":{"ha":699,"x_min":0,"x_max":0,"o":"m 650 206 b 665 193 660 206 665 200 l 665 13 b 649 0 665 7 658 0 l 18 0 b 3 18 4 0 -1 7 l 79 206 l 650 206 m 15 904 b 0 918 7 904 0 911 l 0 1099 b 15 1111 0 1104 7 1111 l 647 1111 b 663 1093 660 1111 665 1104 l 392 418 l 164 418 l 358 904 l 15 904 "},"a":{"ha":917,"x_min":0,"x_max":0,"o":"m 872 17 b 860 0 876 8 869 0 l 668 0 b 656 8 664 0 657 3 l 436 628 l 219 8 b 206 0 218 3 211 0 l 15 0 b 1 17 3 0 -3 8 l 422 1103 b 450 1103 426 1114 446 1114 l 872 17 "},"b":{"ha":808,"x_min":0,"x_max":0,"o":"m 542 781 b 378 913 542 914 378 913 l 211 913 l 211 658 l 378 658 b 542 781 378 658 542 658 m 754 793 b 600 556 754 664 685 590 b 769 324 776 496 769 324 b 378 0 769 14 453 0 l 213 0 l 213 203 l 378 203 b 557 329 447 203 557 222 b 378 451 557 460 378 451 l 211 451 l 0 451 l 0 1099 b 15 1111 0 1104 7 1111 l 378 1111 b 754 793 378 1111 754 1119 "},"c":{"ha":890,"x_min":0,"x_max":0,"o":"m 847 204 l 847 13 b 832 0 847 7 842 0 l 651 0 b 0 556 375 0 0 81 b 651 1111 0 1049 379 1111 l 832 1111 b 847 1099 842 1111 847 1104 l 847 663 l 635 663 l 635 908 b 214 556 393 921 214 819 b 635 204 214 213 500 199 l 635 204 "},"d":{"ha":890,"x_min":0,"x_max":0,"o":"m 197 1111 b 847 556 468 1111 847 1049 b 197 0 847 81 474 0 l 15 0 b 0 13 7 0 0 7 l 0 449 l 213 449 l 213 204 b 633 556 347 199 633 213 b 213 908 633 819 454 921 l 213 663 l 0 663 l 0 1099 b 15 1111 0 1104 7 1111 l 197 1111 "},"e":{"ha":697,"x_min":0,"x_max":0,"o":"m 528 0 l 15 0 b 0 13 7 0 0 7 l 0 1099 b 15 1111 0 1104 7 1111 l 528 1111 l 528 910 l 213 910 l 213 658 l 649 658 b 664 646 657 658 664 653 l 664 469 b 649 457 664 464 657 457 l 213 457 l 213 207 l 528 207 "},"f":{"ha":697,"x_min":0,"x_max":0,"o":"m 649 658 b 664 646 657 658 664 653 l 664 469 b 649 457 664 464 657 457 l 213 457 l 213 0 l 211 0 l 74 0 l 15 0 b 0 13 7 0 0 7 l 0 1099 b 15 1111 0 1104 7 1111 l 528 1111 l 528 910 l 213 910 l 213 658 l 649 658 "},"g":{"ha":890,"x_min":0,"x_max":0,"o":"m 635 907 l 635 907 b 214 556 500 913 214 899 b 635 203 214 292 393 190 l 635 449 l 635 449 l 635 481 l 421 481 l 421 693 l 635 693 l 847 693 l 847 481 l 847 449 l 847 13 b 832 0 847 7 842 0 l 651 0 b 0 556 379 0 0 63 b 651 1111 0 1031 375 1111 l 832 1111 b 847 1099 842 1111 847 1104 l 847 907 "},"h":{"ha":889,"x_min":0,"x_max":0,"o":"m 0 629 l 0 1099 b 15 1111 0 1104 7 1111 l 197 1111 b 213 1099 207 1111 213 1104 l 213 660 l 213 629 m 831 1111 b 846 1099 840 1111 846 1104 l 846 13 b 831 0 846 7 840 0 l 649 0 b 633 13 640 0 633 7 l 633 208 l 213 208 l 213 13 b 197 0 213 7 207 0 l 15 0 b 0 13 7 0 0 7 l 0 417 l 213 417 l 213 415 l 633 415 l 633 453 l 633 660 l 633 1099 b 649 1111 633 1104 640 1111 l 831 1111 "},"i":{"ha":492,"x_min":0,"x_max":0,"o":"m 453 190 b 468 178 463 190 468 185 l 468 13 b 453 0 468 7 463 0 l 15 0 b 0 13 7 0 0 7 l 0 178 b 15 190 0 185 7 190 l 129 190 l 129 583 l 129 921 l 129 1111 l 342 1111 l 342 921 l 342 583 l 342 190 l 453 190 "},"j":{"ha":510,"x_min":0,"x_max":0,"o":"m 93 921 b 78 933 83 921 78 928 l 78 1099 b 93 1111 78 1104 83 1111 l 471 1111 b 485 1099 481 1111 485 1104 l 485 921 l 274 921 l 93 921 m 485 731 l 485 328 b 153 0 485 0 153 0 l 15 0 b 0 13 7 0 0 7 l 0 193 b 15 206 0 200 7 206 l 153 206 b 274 328 274 206 274 328 l 274 731 "},"k":{"ha":935,"x_min":0,"x_max":0,"o":"m 886 21 b 874 0 894 10 888 0 l 635 0 b 622 4 632 0 624 3 l 299 404 b 0 68 271 375 0 68 l 0 68 l 0 1099 b 15 1111 0 1104 7 1111 l 199 1111 b 213 1099 207 1111 213 1104 l 213 593 l 631 1107 b 643 1111 632 1108 640 1111 l 869 1111 b 882 1090 885 1111 892 1100 l 440 546 l 886 21 "},"l":{"ha":647,"x_min":0,"x_max":0,"o":"m 600 207 b 615 193 610 207 615 200 l 615 13 b 600 0 615 7 610 0 l 15 0 b 0 13 7 0 0 7 l 0 207 l 213 207 l 600 207 m 0 419 l 0 1099 b 15 1111 0 1104 7 1111 l 199 1111 b 213 1099 207 1111 213 1104 l 213 419 "},"m":{"ha":1267,"x_min":0,"x_max":0,"o":"m 994 621 l 711 53 b 699 44 710 49 703 44 l 528 44 b 514 53 524 44 515 49 l 213 636 l 213 13 b 197 0 213 7 206 0 l 14 0 b 0 13 4 0 0 7 l 0 1099 b 14 1111 0 1104 4 1111 l 200 1111 b 214 1103 204 1111 213 1107 l 613 289 l 992 1103 b 1007 1111 994 1107 1001 1111 l 1190 1111 b 1206 1099 1200 1111 1206 1104 l 1206 268 l 994 268 "},"n":{"ha":982,"x_min":0,"x_max":0,"o":"m 919 1111 b 935 1099 929 1111 935 1104 l 935 13 b 919 0 935 7 929 0 l 736 0 b 724 4 733 0 725 1 l 213 736 l 213 267 l 0 267 l 0 1099 b 14 1111 0 1104 7 1111 l 199 1111 b 211 1107 201 1111 210 1110 l 724 375 l 724 1099 b 740 1111 724 1104 731 1111 l 919 1111 "},"o":{"ha":1122,"x_min":0,"x_max":0,"o":"m 639 553 b 535 449 639 496 593 449 b 431 553 476 449 431 496 b 535 658 431 611 476 658 b 639 553 593 658 639 611 m 1069 557 b 536 0 1069 279 890 0 b 0 557 176 0 0 279 b 536 1111 0 833 176 1111 b 1069 557 890 1111 1069 833 m 861 553 b 536 915 861 735 751 915 b 210 553 318 915 210 735 b 536 194 210 374 318 194 b 861 553 751 194 861 374 "},"p":{"ha":786,"x_min":0,"x_max":0,"o":"m 374 1111 b 749 778 418 1111 749 1104 b 374 447 749 451 400 447 l 208 447 l 208 13 b 194 0 208 7 204 0 l 14 0 b 0 13 7 0 0 7 l 0 653 l 208 653 l 374 653 b 538 778 401 653 538 656 b 374 907 538 900 399 907 l 208 907 l 0 907 l 0 1099 b 14 1111 0 1104 7 1111 l 374 1111 "},"q":{"ha":1135,"x_min":0,"x_max":0,"o":"m 203 564 b 532 208 203 379 332 208 b 688 247 581 208 639 224 l 229 706 b 203 564 213 661 203 613 m 864 564 b 532 915 864 749 747 915 b 357 867 464 915 406 897 l 828 396 b 864 564 850 443 864 510 m 1075 142 b 1075 124 1082 138 1082 129 l 956 3 b 933 3 949 -1 940 -1 l 833 104 b 532 13 746 47 642 13 b 0 564 213 13 0 271 b 532 1111 0 854 203 1111 b 1065 564 849 1111 1065 854 b 974 244 1065 456 1031 332 l 1075 142 "},"r":{"ha":799,"x_min":0,"x_max":0,"o":"m 758 18 b 746 0 763 8 757 0 l 547 0 b 533 8 543 0 535 4 l 331 449 l 211 449 l 211 13 b 196 0 211 7 204 0 l 14 0 b 0 13 7 0 0 7 l 0 653 l 211 653 l 374 653 b 538 781 419 653 538 658 b 374 910 538 903 407 910 l 211 910 l 0 910 l 0 1099 b 14 1111 0 1104 7 1111 l 374 1111 b 749 781 436 1111 749 1108 b 544 482 749 611 656 522 b 758 18 614 325 689 172 "},"s":{"ha":725,"x_min":0,"x_max":0,"o":"m 510 617 b 690 324 626 563 690 454 b 346 0 690 115 524 0 b 344 0 346 0 346 0 l 344 200 b 346 200 346 200 346 200 b 485 324 419 200 485 250 b 346 458 485 406 408 456 b 181 496 336 458 261 458 b 0 776 65 549 0 647 b 346 1111 0 985 168 1111 b 686 794 536 1111 683 983 b 671 783 688 790 681 783 l 497 783 b 482 794 489 783 482 790 b 346 911 479 874 418 911 b 207 776 269 911 207 865 b 346 654 207 696 275 654 b 510 617 353 654 431 654 "},"t":{"ha":701,"x_min":0,"x_max":0,"o":"m 440 708 l 440 13 b 424 0 440 7 433 0 l 244 0 b 229 13 235 0 229 7 l 229 708 m 15 921 b 0 933 7 921 0 926 l 0 1099 b 15 1111 0 1104 7 1111 l 653 1111 b 668 1099 663 1111 668 1104 l 668 933 b 653 921 668 926 663 921 l 15 921 "},"u":{"ha":875,"x_min":0,"x_max":0,"o":"m 819 1111 b 833 1099 826 1111 833 1104 l 833 371 b 417 0 833 136 653 0 b 0 371 188 0 0 142 l 0 910 l 210 910 l 210 372 b 417 204 222 263 314 204 b 624 371 521 204 624 258 l 624 1099 b 639 1111 624 1104 629 1111 l 819 1111 "},"v":{"ha":833,"x_min":0,"x_max":0,"o":"m 793 904 l 446 7 b 419 7 442 -3 425 -3 l 1 1094 b 14 1111 -3 1103 3 1111 l 203 1111 b 217 1103 210 1111 215 1108 l 433 497 l 579 904 "},"w":{"ha":1439,"x_min":0,"x_max":0,"o":"m 1371 907 l 1025 8 b 999 8 1021 -3 1003 -3 l 685 832 l 371 8 b 344 8 367 -3 349 -3 l 0 907 l 217 907 l 357 525 l 578 1103 b 590 1111 579 1108 585 1111 l 779 1111 b 793 1103 785 1111 790 1108 l 1013 525 l 1154 907 "},"x":{"ha":1081,"x_min":0,"x_max":0,"o":"m 1013 1111 b 1026 1090 1028 1111 1033 1100 l 643 556 b 889 213 725 443 807 328 l 631 213 l 515 375 l 250 4 b 238 0 249 1 240 0 l 15 0 b 4 21 1 0 -4 11 l 385 556 b 140 899 303 668 222 783 l 399 899 l 515 736 l 778 1107 b 790 1111 779 1110 788 1111 l 1013 1111 "},"y":{"ha":933,"x_min":0,"x_max":0,"o":"m 889 899 l 621 522 l 621 13 b 606 0 621 7 614 0 l 424 0 b 408 13 414 0 408 7 l 408 522 b 3 1090 275 713 138 901 b 17 1111 -4 1100 1 1111 l 236 1111 b 250 1107 240 1111 247 1110 l 514 736 l 631 899 "},"z":{"ha":699,"x_min":0,"x_max":0,"o":"m 650 206 b 665 193 660 206 665 200 l 665 13 b 649 0 665 7 658 0 l 18 0 b 3 18 4 0 -1 7 l 79 206 l 650 206 m 15 904 b 0 918 7 904 0 911 l 0 1099 b 15 1111 0 1104 7 1111 l 647 1111 b 663 1093 660 1111 665 1104 l 392 418 l 164 418 l 358 904 l 15 904 "},"–":{"ha":814,"x_min":0,"x_max":0,"o":"m 676 626 b 664 615 676 621 672 615 l 167 615 b 151 626 157 615 151 621 l 151 776 b 167 789 151 782 157 789 l 664 789 b 676 776 672 789 676 782 "},"‚":{"ha":1389,"x_min":0,"x_max":0,"o":""},"−":{"ha":814,"x_min":0,"x_max":0,"o":"m 676 626 b 664 615 676 621 672 615 l 167 615 b 151 626 157 615 151 621 l 151 776 b 167 789 151 782 157 789 l 664 789 b 676 776 672 789 676 782 "}}}
